<?xml version="1.0" encoding="UTF-8" standalone="no"?>
<svg
   xmlns:dc="http://purl.org/dc/elements/1.1/"
   xmlns:cc="http://creativecommons.org/ns#"
   xmlns:rdf="http://www.w3.org/1999/02/22-rdf-syntax-ns#"
   xmlns:svg="http://www.w3.org/2000/svg"
   xmlns="http://www.w3.org/2000/svg"
   xmlns:sodipodi="http://sodipodi.sourceforge.net/DTD/sodipodi-0.dtd"
   xmlns:inkscape="http://www.inkscape.org/namespaces/inkscape"
   width="800"
   height="800"
   viewBox="0 0 211.66666 211.66667"
   version="1.1"
   id="svg8"
   inkscape:version="0.92.3 (2405546, 2018-03-11)"
   sodipodi:docname="logo.svg">
  <defs
     id="defs2" />
  <sodipodi:namedview
     id="base"
     pagecolor="#ffffff"
     bordercolor="#666666"
     borderopacity="1.0"
     inkscape:pageopacity="0.0"
     inkscape:pageshadow="2"
     inkscape:zoom="0.58047198"
     inkscape:cx="-1269.4604"
     inkscape:cy="207.41202"
     inkscape:document-units="mm"
     inkscape:current-layer="layer1"
     showgrid="false"
     inkscape:window-width="3738"
     inkscape:window-height="2049"
     inkscape:window-x="102"
     inkscape:window-y="55"
     inkscape:window-maximized="1"
     units="px" />
  <metadata
     id="metadata5">
    <rdf:RDF>
      <cc:Work
         rdf:about="">
        <dc:format>image/svg+xml</dc:format>
        <dc:type
           rdf:resource="http://purl.org/dc/dcmitype/StillImage" />
        <dc:title></dc:title>
      </cc:Work>
    </rdf:RDF>
  </metadata>
  <g
     inkscape:label="Camada 1"
     inkscape:groupmode="layer"
     id="layer1"
     transform="translate(0,-85.333287)">


    <g
       id="g23390"
       transform="matrix(2.0329862,0,0,2.0329862,-1746.6666,-633.55685)"
       style="fill:none;stroke:#000000;stroke-opacity:1">
      <path
         style="fill:none;stroke:#000000;stroke-width:0.22089095;stroke-opacity:1"
         d="m 913.12541,455.3865 c -0.0228,-0.0594 -0.0319,-1.20258 -0.0204,-2.54028 l 0.0213,-2.43219 0.95843,-0.55449 c 0.52713,-0.305 1.40767,-0.81336 1.95678,-1.12974 2.66494,-1.53543 29.59446,-17.0823 30.70952,-17.72913 0.70283,-0.4077 1.87093,-1.08314 2.59573,-1.50096 l 1.31785,-0.7597 0.0204,-7.4515 c 0.0112,-4.09831 -0.007,-7.47873 -0.0402,-7.51203 -0.0563,-0.0563 -6.13218,3.40679 -6.42138,3.66021 -0.0724,0.0633 -0.17228,0.27734 -0.22222,0.47546 -0.30541,1.21284 -1.70491,4.21628 -2.71747,5.83188 -1.80861,2.88579 -4.31598,5.51654 -6.84552,7.18235 -3.92935,2.5877 -8.10466,3.20844 -11.2432,1.6715 -4.48553,-2.19651 -6.23684,-8.17187 -4.43352,-15.12695 1.68624,-6.50355 6.2861,-12.53787 11.61642,-15.23904 1.17411,-0.59499 2.18754,-0.97409 3.39443,-1.26977 0.83791,-0.20529 1.04461,-0.2248 2.35613,-0.22228 1.29122,0.003 1.51658,0.0239 2.21281,0.21047 1.43048,0.38331 2.6063,1.04293 3.64771,2.04623 0.27897,0.26877 0.5431,0.48868 0.58694,0.48868 0.0439,0 1.27073,-0.67693 2.72641,-1.50431 1.45568,-0.82739 3.26667,-1.85456 4.02442,-2.28265 l 1.37775,-0.77831 v -6.85663 c 0,-5.72306 0.0181,-6.87485 0.11012,-6.96684 0.13699,-0.13698 4.16021,-2.45699 4.26079,-2.45699 0.0844,0 1.52579,2.93026 2.02321,4.11323 1.95787,4.65621 3.16541,9.49638 3.68638,14.77573 0.1406,1.42456 0.13807,7.29553 -0.003,8.78555 -0.47193,4.95835 -1.58712,9.61257 -3.37285,14.07652 -0.67948,1.6986 -2.28509,4.98064 -3.19431,6.5296 -3.81214,6.49433 -9.19605,12.18676 -15.45005,16.33539 -6.93384,4.59956 -14.85619,7.36087 -23.122,8.05905 -2.06403,0.17444 -2.47292,0.18604 -2.51671,0.0719 z m -4.51174,-0.0396 c -8.42091,-0.59002 -15.35381,-2.68119 -22.28337,-6.72137 -4.31217,-2.51415 -7.97456,-5.50172 -11.80364,-9.62875 -2.58343,-2.78445 -5.56783,-7.12619 -7.28094,-10.59239 -0.27139,-0.54911 -0.56005,-1.12416 -0.64146,-1.27791 -0.32635,-0.61628 -1.29416,-2.92907 -1.74182,-4.16238 -1.78719,-4.92397 -2.68739,-9.47264 -2.97762,-15.04602 -0.10979,-2.10888 -8.7e-4,-5.34682 0.24508,-7.308 0.0414,-0.32946 0.11504,-0.92249 0.16346,-1.31783 0.38435,-3.13127 1.44797,-7.35717 2.70054,-10.72962 0.62153,-1.67339 2.45791,-5.68626 2.65905,-5.81057 0.0394,-0.0243 0.99638,0.49332 2.12648,1.15046 l 2.05472,1.19479 0.04,21.83234 0.0399,21.83235 0.63895,0.36661 c 2.52903,1.45112 7.16525,4.12697 7.42778,4.28705 0.56984,0.34746 3.50876,2.03276 3.69964,2.12151 0.14474,0.0672 0.20148,0.0609 0.25835,-0.029 0.0416,-0.0659 0.0734,-2.00846 0.0742,-4.53419 l 8.8e-4,-4.41891 -0.67173,-0.89434 c -2.64878,-3.52654 -4.29994,-7.44003 -4.89118,-11.59277 -0.16381,-1.15105 -0.18509,-3.70254 -0.0382,-4.59242 0.46081,-2.79094 1.2888,-4.63536 2.75411,-6.13494 0.72967,-0.74671 1.38829,-1.21735 2.32379,-1.6605 2.12341,-1.00588 4.55481,-1.05764 7.27207,-0.15481 4.55745,1.51424 9.02499,5.72659 11.73545,11.0651 2.57432,5.07031 3.29107,10.54453 1.92666,14.71535 -0.25616,0.78309 -0.9198,2.11068 -1.37238,2.74547 -0.72849,1.02174 -1.79908,1.94292 -2.9638,2.55019 l -0.62025,0.32339 v 5.86398 5.86398 l 1.15811,0.67164 c 0.63696,0.36938 1.57141,0.91327 2.07659,1.20861 0.74274,0.43423 5.17618,2.98846 6.60914,3.80767 l 0.33943,0.19407 v 2.38415 c 0,2.60566 0.0201,2.49898 -0.46578,2.46715 -0.11719,-0.007 -0.37483,-0.0252 -0.57253,-0.0391 z m -0.75874,-61.33607 c -2.94683,-0.29579 -5.5639,-1.00485 -7.93204,-2.14911 -3.18736,-1.5401 -5.30015,-3.4854 -6.48938,-5.97496 -0.62423,-1.30677 -0.74033,-1.84216 -0.74754,-3.44681 -0.006,-1.08271 0.0243,-1.47657 0.14401,-1.94417 0.14689,-0.57393 0.14689,-0.58951 0,-0.73411 -0.24622,-0.24217 -7.19788,-4.23035 -7.3738,-4.23035 -0.0891,0 -2.74689,1.49153 -5.90617,3.31455 -3.15928,1.823 -5.78816,3.31455 -5.84194,3.31455 -0.16255,0 -4.30999,-2.41931 -4.30999,-2.51415 0,-0.13375 1.42951,-2.25138 2.31523,-3.42965 2.35242,-3.12945 5.23844,-6.15882 8.12554,-8.5292 5.7573,-4.72689 12.39326,-8.09037 19.42645,-9.84643 4.44425,-1.10965 8.3642,-1.54419 13.10212,-1.45245 4.76445,0.0922 8.60442,0.68124 13.16433,2.01915 9.20259,2.70012 17.91209,8.48772 24.02822,15.96713 1.47793,1.80737 3.78011,5.02739 3.78011,5.28718 0,0.0438 -0.5481,0.3962 -1.21799,0.78308 -0.6699,0.38687 -1.61199,0.93384 -2.09353,1.21543 -0.53026,0.31012 -0.93973,0.49953 -1.0383,0.48033 -0.14401,-0.0281 -4.26803,-2.39699 -21.4877,-12.34305 -2.54781,-1.47162 -6.96854,-4.02443 -9.82385,-5.67292 -2.85531,-1.64848 -5.43485,-3.13841 -5.7323,-3.31096 -0.29746,-0.17244 -0.59383,-0.29335 -0.65859,-0.26849 -0.0648,0.0248 -2.5709,1.461 -5.56914,3.19142 -2.99824,1.73042 -5.87366,3.3879 -6.3898,3.68326 -0.51616,0.29536 -0.93847,0.58354 -0.93847,0.64043 0,0.081 3.85313,2.33252 5.36778,3.13664 l 0.29612,0.15715 0.90191,-0.18699 c 1.93097,-0.40035 2.66069,-0.46357 5.33462,-0.46207 2.16657,8.8e-4 2.66571,0.0251 3.5951,0.17082 2.97749,0.46735 5.43411,1.26324 7.59921,2.46196 1.55362,0.86016 2.47832,1.56845 3.66129,2.8044 4.40714,4.60457 3.35235,10.6925 -2.52359,14.56527 -1.92015,1.26556 -4.34998,2.2655 -6.78113,2.79064 -1.99697,0.43134 -2.67378,0.49893 -5.23139,0.52227 -1.3398,0.0127 -2.57977,0.007 -2.75547,-0.009 z"
         id="path5483-1"
         inkscape:connector-curvature="0" />
    </g>
    <flowRoot
       xml:space="preserve"
       id="flowRoot23457"
       style="font-style:normal;font-variant:normal;font-weight:normal;font-stretch:normal;font-size:100px;line-height:125%;font-family:gruppo;-inkscape-font-specification:gruppo;letter-spacing:0px;word-spacing:0px;fill:#000000;fill-opacity:1;stroke:none;stroke-width:1px;stroke-linecap:butt;stroke-linejoin:miter;stroke-opacity:1"
       transform="matrix(0.2406643,0,0,0.2406643,-498.65683,-67.279448)"><flowRegion
         id="flowRegion23459"><rect
           id="rect23461"
           width="193.35588"
           height="160.22031"
           x="621.77954"
           y="334.52316" /></flowRegion><flowPara
         id="flowPara23463" /></flowRoot>  </g>
</svg>
